<svg width="51" height="51" viewBox="0 0 51 51" fill="none" xmlns="http://www.w3.org/2000/svg">
<rect width="51" height="51" rx="10" fill="#FFECEB"/>
<path d="M38 27.625C38 27.3266 37.8815 27.0405 37.6705 26.8295C37.4595 26.6185 37.1734 26.5 36.875 26.5H32.375C32.0766 26.5 31.7905 26.6185 31.5795 26.8295C31.3685 27.0405 31.25 27.3266 31.25 27.625V37.75H29V13.375C29 12.283 28.997 11.575 28.928 11.056C28.862 10.5685 28.7555 10.4155 28.67 10.33C28.5845 10.2445 28.4315 10.138 27.944 10.072C27.4235 10.003 26.717 10 25.625 10C24.533 10 23.825 10.003 23.306 10.072C22.8185 10.138 22.6655 10.2445 22.58 10.33C22.4945 10.4155 22.388 10.5685 22.322 11.056C22.253 11.5765 22.25 12.283 22.25 13.375V37.75H20V20.125C20 19.8266 19.8815 19.5405 19.6705 19.3295C19.4595 19.1185 19.1734 19 18.875 19H14.375C14.0766 19 13.7905 19.1185 13.5795 19.3295C13.3685 19.5405 13.25 19.8266 13.25 20.125V37.75H10.625C10.3266 37.75 10.0405 37.8685 9.8295 38.0795C9.61853 38.2905 9.5 38.5766 9.5 38.875C9.5 39.1734 9.61853 39.4595 9.8295 39.6705C10.0405 39.8815 10.3266 40 10.625 40H40.625C40.9234 40 41.2095 39.8815 41.4205 39.6705C41.6315 39.4595 41.75 39.1734 41.75 38.875C41.75 38.5766 41.6315 38.2905 41.4205 38.0795C41.2095 37.8685 40.9234 37.75 40.625 37.75H38V27.625Z" fill="#E58C84"/>
</svg>
