<svg width="51" height="51" viewBox="0 0 51 51" fill="none" xmlns="http://www.w3.org/2000/svg">
<rect width="51" height="51" rx="10" fill="#E7F2F8"/>
<path d="M38.5999 19.6V33.1C38.6001 34.2425 38.1657 35.3423 37.3848 36.1763C36.604 37.0103 35.5351 37.516 34.3951 37.591L34.0999 37.6H17.8999C16.7574 37.6002 15.6576 37.1658 14.8236 36.3849C13.9896 35.6041 13.4839 34.5352 13.4089 33.3952L13.3999 33.1V19.6H38.5999ZM28.7287 21.8212C27.7747 21.8212 27.0133 22.0768 26.4517 22.588C25.8883 23.0992 25.6075 23.7904 25.6075 24.6616C25.6075 25.1656 25.7353 25.6102 25.9909 26.0026C26.2465 26.3932 26.5939 26.701 27.0349 26.926C26.5093 27.16 26.1025 27.4966 25.8109 27.9322C25.5201 28.369 25.3683 28.8835 25.3753 29.4082C25.3753 30.3046 25.6813 31.0156 26.2933 31.5466C26.9053 32.0758 27.7189 32.3404 28.7359 32.3404C29.7493 32.3404 30.5593 32.0776 31.1695 31.5484C31.7779 31.0228 32.0839 30.3082 32.0839 29.4082C32.0839 28.8646 31.9399 28.3768 31.6519 27.9466C31.3434 27.498 30.9158 27.1445 30.4171 26.926C30.8444 26.7172 31.2084 26.3985 31.4719 26.0026C31.7293 25.6102 31.8589 25.1638 31.8589 24.6616C31.8589 23.7904 31.5763 23.0992 31.0129 22.588C30.4513 22.0768 29.6899 21.8212 28.7287 21.8212ZM23.2927 21.9274H23.0749L19.0807 23.3962V24.838L21.5917 23.9812V32.2H23.2927V21.9274ZM28.7215 27.6298C29.2201 27.6298 29.6179 27.7846 29.9203 28.0978C30.2227 28.4092 30.3739 28.8178 30.3739 29.3236C30.3739 29.8456 30.2299 30.2506 29.9419 30.5404C29.6539 30.832 29.2525 30.976 28.7359 30.976C28.2211 30.976 27.8179 30.8266 27.5245 30.526C27.2311 30.2272 27.0835 29.8258 27.0835 29.3236C27.0835 28.8124 27.2329 28.4038 27.5299 28.0942C27.8287 27.7846 28.2247 27.6298 28.7215 27.6298ZM28.7287 23.1928C28.9234 23.1842 29.1177 23.2184 29.2978 23.293C29.4779 23.3677 29.6394 23.4809 29.7709 23.6248C30.0283 23.9128 30.1561 24.28 30.1561 24.7264C30.1561 25.1944 30.0301 25.567 29.7745 25.8424C29.5189 26.1196 29.1715 26.2582 28.7359 26.2582C28.3003 26.2582 27.9547 26.1196 27.6991 25.8442C27.4435 25.567 27.3157 25.1962 27.3157 24.7264C27.3157 24.253 27.4417 23.8786 27.6955 23.605C27.9475 23.3296 28.2931 23.1928 28.7287 23.1928ZM34.0999 12.4C35.2424 12.3998 36.3422 12.8342 37.1762 13.6151C38.0102 14.3959 38.516 15.4648 38.5909 16.6048L38.5999 16.9V17.8H13.3999V16.9C13.3997 15.7575 13.8341 14.6577 14.615 13.8237C15.3958 12.9897 16.4647 12.4839 17.6047 12.409L17.8999 12.4H34.0999Z" fill="#3F9AD0"/>
</svg>
