<svg width="20" height="21" viewBox="0 0 20 21" fill="none" xmlns="http://www.w3.org/2000/svg">
<g clip-path="url(#clip0_261_36)">
<path d="M13.75 6.75C13.75 7.74456 13.3549 8.69839 12.6517 9.40165C11.9484 10.1049 10.9946 10.5 10 10.5C9.00544 10.5 8.05161 10.1049 7.34835 9.40165C6.64509 8.69839 6.25 7.74456 6.25 6.75C6.25 5.75544 6.64509 4.80161 7.34835 4.09835C8.05161 3.39509 9.00544 3 10 3C10.9946 3 11.9484 3.39509 12.6517 4.09835C13.3549 4.80161 13.75 5.75544 13.75 6.75ZM10 9.25C10.663 9.25 11.2989 8.98661 11.7678 8.51777C12.2366 8.04893 12.5 7.41304 12.5 6.75C12.5 6.08696 12.2366 5.45107 11.7678 4.98223C11.2989 4.51339 10.663 4.25 10 4.25C9.33696 4.25 8.70107 4.51339 8.23223 4.98223C7.76339 5.45107 7.5 6.08696 7.5 6.75C7.5 7.41304 7.76339 8.04893 8.23223 8.51777C8.70107 8.98661 9.33696 9.25 10 9.25ZM10.32 18C10.1766 17.5941 10.0805 17.173 10.0338 16.745H3.75C3.75125 16.4375 3.9425 15.5125 4.79 14.665C5.605 13.85 7.13875 13 10 13C10.325 13 10.6337 13.0112 10.925 13.0312C11.2075 12.605 11.545 12.2188 11.93 11.8838C11.3462 11.7975 10.705 11.75 10 11.75C3.75 11.75 2.5 15.5 2.5 16.75C2.5 18 3.75 18 3.75 18H10.32Z" fill="#D5491C"/>
<path d="M15.625 20.5C16.7853 20.5 17.8981 20.0391 18.7186 19.2186C19.5391 18.3981 20 17.2853 20 16.125C20 14.9647 19.5391 13.8519 18.7186 13.0314C17.8981 12.2109 16.7853 11.75 15.625 11.75C14.4647 11.75 13.3519 12.2109 12.5314 13.0314C11.7109 13.8519 11.25 14.9647 11.25 16.125C11.25 17.2853 11.7109 18.3981 12.5314 19.2186C13.3519 20.0391 14.4647 20.5 15.625 20.5ZM14.8175 14.4325L15.625 15.2413L16.4325 14.4325C16.5499 14.3151 16.709 14.2492 16.875 14.2492C17.041 14.2492 17.2001 14.3151 17.3175 14.4325C17.4349 14.5499 17.5008 14.709 17.5008 14.875C17.5008 15.041 17.4349 15.2001 17.3175 15.3175L16.5087 16.125L17.3175 16.9325C17.4349 17.0499 17.5008 17.209 17.5008 17.375C17.5008 17.541 17.4349 17.7001 17.3175 17.8175C17.2001 17.9349 17.041 18.0008 16.875 18.0008C16.709 18.0008 16.5499 17.9349 16.4325 17.8175L15.625 17.0087L14.8175 17.8175C14.7001 17.9349 14.541 18.0008 14.375 18.0008C14.209 18.0008 14.0499 17.9349 13.9325 17.8175C13.8151 17.7001 13.7492 17.541 13.7492 17.375C13.7492 17.209 13.8151 17.0499 13.9325 16.9325L14.7413 16.125L13.9325 15.3175C13.8151 15.2001 13.7492 15.041 13.7492 14.875C13.7492 14.709 13.8151 14.5499 13.9325 14.4325C14.0499 14.3151 14.209 14.2492 14.375 14.2492C14.541 14.2492 14.7001 14.3151 14.8175 14.4325Z" fill="#D5491C"/>
</g>
<defs>
<clipPath id="clip0_261_36">
<rect width="20" height="20" fill="white" transform="translate(0 0.5)"/>
</clipPath>
</defs>
</svg>
