<svg width="20" height="21" viewBox="0 0 20 21" fill="none" xmlns="http://www.w3.org/2000/svg">
<path d="M7 14.09L10 11.09L13 14.09L13.59 13.5L10.59 10.5L13.59 7.5L13 6.91L10 9.91L7 6.91L6.41 7.5L9.41 10.5L6.41 13.5L7 14.09ZM10.0025 18C8.96583 18 7.99083 17.8033 7.0775 17.41C6.16472 17.0161 5.37056 16.4817 4.695 15.8067C4.01944 15.1322 3.48472 14.3389 3.09083 13.4267C2.69694 12.5144 2.5 11.5397 2.5 10.5025C2.5 9.46583 2.69667 8.49083 3.09 7.5775C3.48389 6.66472 4.01833 5.87056 4.69333 5.195C5.36778 4.51944 6.16111 3.98472 7.07333 3.59083C7.98556 3.19694 8.96028 3 9.9975 3C11.0342 3 12.0092 3.19667 12.9225 3.59C13.8353 3.98389 14.6294 4.51833 15.305 5.19333C15.9806 5.86778 16.5153 6.66111 16.9092 7.57333C17.3031 8.48556 17.5 9.46028 17.5 10.4975C17.5 11.5342 17.3033 12.5092 16.91 13.4225C16.5161 14.3353 15.9817 15.1294 15.3067 15.805C14.6322 16.4806 13.8389 17.0153 12.9267 17.4092C12.0144 17.8031 11.0397 18 10.0025 18ZM10 17.1667C11.8611 17.1667 13.4375 16.5208 14.7292 15.2292C16.0208 13.9375 16.6667 12.3611 16.6667 10.5C16.6667 8.63889 16.0208 7.0625 14.7292 5.77083C13.4375 4.47917 11.8611 3.83333 10 3.83333C8.13889 3.83333 6.5625 4.47917 5.27083 5.77083C3.97917 7.0625 3.33333 8.63889 3.33333 10.5C3.33333 12.3611 3.97917 13.9375 5.27083 15.2292C6.5625 16.5208 8.13889 17.1667 10 17.1667Z" fill="#D5491C"/>
</svg>
