<svg width="46" height="46" viewBox="0 0 46 46" fill="none" xmlns="http://www.w3.org/2000/svg">
<rect width="46" height="46" rx="8.84615" fill="#CCE3F0"/>
<path d="M33.6667 25.3333C33.6667 25.0681 33.5613 24.8137 33.3738 24.6262C33.1862 24.4386 32.9319 24.3333 32.6667 24.3333H28.6667C28.4014 24.3333 28.1471 24.4386 27.9596 24.6262C27.772 24.8137 27.6667 25.0681 27.6667 25.3333V34.3333H25.6667V12.6666C25.6667 11.696 25.664 11.0666 25.6027 10.6053C25.544 10.172 25.4493 10.036 25.3733 9.95996C25.2973 9.88396 25.1613 9.78929 24.728 9.73063C24.2653 9.66929 23.6373 9.66663 22.6667 9.66663C21.696 9.66663 21.0667 9.66929 20.6053 9.73063C20.172 9.78929 20.036 9.88396 19.96 9.95996C19.884 10.036 19.7893 10.172 19.7307 10.6053C19.6693 11.068 19.6667 11.696 19.6667 12.6666V34.3333H17.6667V18.6666C17.6667 18.4014 17.5613 18.1471 17.3738 17.9595C17.1862 17.772 16.9319 17.6666 16.6667 17.6666H12.6667C12.4014 17.6666 12.1471 17.772 11.9596 17.9595C11.772 18.1471 11.6667 18.4014 11.6667 18.6666V34.3333H9.33333C9.06811 34.3333 8.81376 34.4386 8.62622 34.6262C8.43869 34.8137 8.33333 35.0681 8.33333 35.3333C8.33333 35.5985 8.43869 35.8529 8.62622 36.0404C8.81376 36.2279 9.06811 36.3333 9.33333 36.3333H36C36.2652 36.3333 36.5196 36.2279 36.7071 36.0404C36.8946 35.8529 37 35.5985 37 35.3333C37 35.0681 36.8946 34.8137 36.7071 34.6262C36.5196 34.4386 36.2652 34.3333 36 34.3333H33.6667V25.3333Z" fill="#005F97"/>
</svg>
