<svg width="46" height="46" viewBox="0 0 46 46" fill="none" xmlns="http://www.w3.org/2000/svg">
<rect width="46" height="46" rx="8.84615" fill="#CCE3F0"/>
<path d="M34.2 18.2V30.2C34.2001 31.2156 33.814 32.1932 33.1199 32.9345C32.4258 33.6759 31.4757 34.1254 30.4624 34.1921L30.2 34.2H15.8C14.7844 34.2002 13.8069 33.8141 13.0655 33.12C12.3242 32.4259 11.8746 31.4758 11.808 30.4624L11.8 30.2V18.2H34.2ZM25.4256 20.1744C24.5776 20.1744 23.9008 20.4016 23.4016 20.856C22.9008 21.3104 22.6512 21.9248 22.6512 22.6992C22.6512 23.1472 22.7648 23.5424 22.992 23.8912C23.2192 24.2384 23.528 24.512 23.92 24.712C23.4528 24.92 23.0912 25.2192 22.832 25.6064C22.5735 25.9947 22.4386 26.4521 22.4448 26.9184C22.4448 27.7153 22.7168 28.3472 23.2608 28.8193C23.8048 29.2896 24.528 29.5248 25.432 29.5248C26.3328 29.5248 27.0528 29.2912 27.5952 28.8208C28.136 28.3536 28.408 27.7184 28.408 26.9184C28.408 26.4352 28.28 26.0016 28.024 25.6192C27.7498 25.2205 27.3696 24.9063 26.9264 24.712C27.3062 24.5264 27.6298 24.2431 27.864 23.8912C28.0928 23.5424 28.208 23.1456 28.208 22.6992C28.208 21.9248 27.9568 21.3104 27.456 20.856C26.9568 20.4016 26.28 20.1744 25.4256 20.1744ZM20.5936 20.2688H20.4L16.8496 21.5744V22.856L19.0816 22.0944V29.4H20.5936V20.2688ZM25.4192 25.3376C25.8624 25.3376 26.216 25.4752 26.4848 25.7536C26.7536 26.0304 26.888 26.3937 26.888 26.8432C26.888 27.3073 26.76 27.6672 26.504 27.9248C26.248 28.184 25.8912 28.312 25.432 28.312C24.9744 28.312 24.616 28.1792 24.3552 27.912C24.0944 27.6464 23.9632 27.2896 23.9632 26.8432C23.9632 26.3888 24.096 26.0256 24.36 25.7504C24.6256 25.4752 24.9776 25.3376 25.4192 25.3376ZM25.4256 21.3936C25.5987 21.386 25.7714 21.4164 25.9314 21.4827C26.0915 21.5491 26.2351 21.6498 26.352 21.7776C26.5808 22.0336 26.6944 22.36 26.6944 22.7568C26.6944 23.1728 26.5824 23.504 26.3552 23.7488C26.128 23.9952 25.8192 24.1184 25.432 24.1184C25.0448 24.1184 24.7376 23.9952 24.5104 23.7504C24.2832 23.504 24.1696 23.1744 24.1696 22.7568C24.1696 22.336 24.2816 22.0032 24.5072 21.76C24.7312 21.5152 25.0384 21.3936 25.4256 21.3936ZM30.2 11.8C31.2155 11.7999 32.1931 12.186 32.9345 12.8801C33.6758 13.5742 34.1254 14.5243 34.192 15.5376L34.2 15.8V16.6H11.8V15.8C11.7998 14.7845 12.186 13.8069 12.8801 13.0656C13.5741 12.3242 14.5242 11.8747 15.5376 11.808L15.8 11.8H30.2Z" fill="#005F97"/>
</svg>
