<svg width="194" height="154" viewBox="0 0 194 154" fill="none" xmlns="http://www.w3.org/2000/svg">
<path fill-rule="evenodd" clip-rule="evenodd" d="M106.391 15.6549C129.632 14.2574 154.39 -3.46253 173.35 10.053C192.998 24.0595 194.758 52.992 192.462 77.0119C190.376 98.8389 178.486 118.221 161.667 132.288C146.317 145.127 126.401 148.982 106.391 149C86.3574 149.017 67.608 143.614 51.0173 132.385C29.4148 117.765 0.930575 103.081 0.0240482 77.0119C-0.887806 50.7896 24.2996 30.7592 47.0275 17.6488C64.8561 7.3644 85.8455 16.8903 106.391 15.6549Z" fill="#E7F2F8"/>
<path fill-rule="evenodd" clip-rule="evenodd" d="M52.085 12.8334C46.9795 12.8334 42.0832 14.8615 38.4732 18.4716C34.8631 22.0816 32.835 26.9779 32.835 32.0834V121.917C32.835 127.022 34.8631 131.918 38.4732 135.529C42.0832 139.139 46.9795 141.167 52.085 141.167H103.418V108.686C103.418 104.489 103.418 100.722 103.829 97.6681C104.278 94.3314 105.318 90.9178 108.115 88.1137C110.919 85.316 114.339 84.2765 117.67 83.8274C120.724 83.4167 124.491 83.4167 128.687 83.4167H161.168V32.0834C161.168 26.9779 159.14 22.0816 155.53 18.4716C151.92 14.8615 147.024 12.8334 141.918 12.8334H52.085ZM159.436 96.25H129.085C124.369 96.25 121.475 96.2629 119.377 96.5452C117.535 96.7954 117.233 97.1419 117.195 97.1869H117.188C117.144 97.2318 116.797 97.5334 116.547 99.3749C116.264 101.473 116.252 104.367 116.252 109.083V139.434C118.331 138.491 120.243 137.176 121.892 135.526L155.528 101.89C157.159 100.259 158.485 98.3488 159.442 96.25H159.436Z" fill="#3F9AD0"/>
</svg>
