<svg width="194" height="154" viewBox="0 0 194 154" fill="none" xmlns="http://www.w3.org/2000/svg">
<path fill-rule="evenodd" clip-rule="evenodd" d="M106.391 15.6549C129.632 14.2574 154.39 -3.46253 173.35 10.053C192.998 24.0595 194.758 52.992 192.462 77.0119C190.376 98.8389 178.486 118.221 161.667 132.288C146.317 145.127 126.401 148.982 106.391 149C86.3574 149.017 67.608 143.614 51.0173 132.385C29.4148 117.765 0.930575 103.081 0.0240482 77.0119C-0.887806 50.7896 24.2996 30.7592 47.0275 17.6488C64.8561 7.3644 85.8455 16.8903 106.391 15.6549Z" fill="#E7F2F8"/>
<path d="M121.062 77C114.878 77 108.899 74.2388 104.218 69.2278C99.6676 64.3401 96.8884 57.8222 96.3981 50.8802C95.8747 43.4749 98.1336 36.6652 102.757 31.7023C107.38 26.7395 113.843 24.0625 121.062 24.0625C128.23 24.0625 134.712 26.7876 139.32 31.7384C143.973 36.7374 146.238 43.5351 145.714 50.8771C145.212 57.8282 142.436 64.3431 137.894 69.2248C133.226 74.2388 127.249 77 121.062 77ZM160.714 129.938H81.4132C80.1382 129.944 78.8786 129.659 77.7315 129.102C76.5843 128.546 75.58 127.734 74.796 126.728C73.9643 125.638 73.39 124.374 73.116 123.031C72.8421 121.688 72.8755 120.3 73.2139 118.971C75.7465 108.802 82.0208 100.368 91.357 94.5837C99.6435 89.4523 110.192 86.625 121.062 86.625C132.146 86.625 142.418 89.332 150.752 94.4604C160.11 100.214 166.393 108.696 168.913 118.989C169.248 120.319 169.277 121.707 169 123.049C168.723 124.392 168.147 125.655 167.313 126.743C166.53 127.744 165.528 128.552 164.384 129.106C163.24 129.66 161.985 129.944 160.714 129.938ZM64.2145 78.2031C53.63 78.2031 44.3238 68.3616 43.4606 56.2672C43.0335 50.0711 44.9645 44.3412 48.8747 40.1393C52.7427 35.9795 58.1989 33.6875 64.2145 33.6875C70.2301 33.6875 75.6442 35.9915 79.5333 40.1754C83.4735 44.4104 85.3985 50.1282 84.9473 56.2732C84.0841 68.3646 74.7809 78.2031 64.2145 78.2031ZM83.9638 87.6627C78.6731 85.076 71.8062 83.7826 64.2175 83.7826C55.3565 83.7826 46.7511 86.0926 39.9836 90.2855C32.3106 95.0469 27.1492 101.98 25.0648 110.351C24.7598 111.555 24.7309 112.812 24.9804 114.029C25.2299 115.246 25.7513 116.39 26.5056 117.377C27.2213 118.296 28.1381 119.038 29.1857 119.547C30.2333 120.056 31.3836 120.318 32.5483 120.312H65.935C66.4985 120.312 67.0441 120.115 67.4767 119.753C67.9093 119.392 68.2014 118.891 68.3021 118.336C68.3352 118.147 68.3773 117.957 68.4254 117.771C70.9761 107.526 76.9526 98.8698 85.7835 92.5594C86.1083 92.3253 86.3696 92.0138 86.5436 91.6532C86.7176 91.2926 86.7989 90.8943 86.7801 90.4943C86.7612 90.0944 86.6429 89.7055 86.4358 89.3628C86.2287 89.0201 85.9394 88.7346 85.594 88.532C85.1218 88.2552 84.5804 87.9635 83.9638 87.6627Z" fill="#3F9AD0"/>
</svg>
