<svg width="51" height="51" viewBox="0 0 51 51" fill="none" xmlns="http://www.w3.org/2000/svg">
<rect width="51" height="51" rx="10" fill="#E9F6F4"/>
<path d="M23.75 38.5C23.75 38.5 21.5 38.5 21.5 36.25C21.5 34 23.75 27.25 32.75 27.25C41.75 27.25 44 34 44 36.25C44 38.5 41.75 38.5 41.75 38.5H23.75ZM32.75 25C34.5402 25 36.2571 24.2888 37.523 23.023C38.7888 21.7571 39.5 20.0402 39.5 18.25C39.5 16.4598 38.7888 14.7429 37.523 13.477C36.2571 12.2112 34.5402 11.5 32.75 11.5C30.9598 11.5 29.2429 12.2112 27.977 13.477C26.7112 14.7429 26 16.4598 26 18.25C26 20.0402 26.7112 21.7571 27.977 23.023C29.2429 24.2888 30.9598 25 32.75 25ZM19.736 38.5C19.4024 37.7976 19.2361 37.0275 19.25 36.25C19.25 33.2013 20.78 30.0625 23.606 27.88C22.1955 27.4454 20.7259 27.2328 19.25 27.25C10.25 27.25 8 34 8 36.25C8 38.5 10.25 38.5 10.25 38.5H19.736ZM18.125 25C19.6168 25 21.0476 24.4074 22.1025 23.3525C23.1574 22.2976 23.75 20.8668 23.75 19.375C23.75 17.8832 23.1574 16.4524 22.1025 15.3975C21.0476 14.3426 19.6168 13.75 18.125 13.75C16.6332 13.75 15.2024 14.3426 14.1475 15.3975C13.0926 16.4524 12.5 17.8832 12.5 19.375C12.5 20.8668 13.0926 22.2976 14.1475 23.3525C15.2024 24.4074 16.6332 25 18.125 25Z" fill="#5EB4A8"/>
</svg>
