<svg width="51" height="51" viewBox="0 0 51 51" fill="none" xmlns="http://www.w3.org/2000/svg">
<rect width="51" height="51" rx="10" fill="#F4E7F8"/>
<path d="M31.6249 25C30.1793 25 28.7815 24.3545 27.6874 23.1831C26.6236 22.0405 25.9739 20.5169 25.8593 18.8941C25.7369 17.163 26.265 15.5711 27.3457 14.4109C28.4264 13.2508 29.9374 12.625 31.6249 12.625C33.3005 12.625 34.8157 13.262 35.8929 14.4194C36.9806 15.588 37.5101 17.177 37.3877 18.8934C37.2703 20.5183 36.6213 22.0412 35.5596 23.1824C34.4684 24.3545 33.0712 25 31.6249 25ZM40.8942 37.375H22.3563C22.0583 37.3766 21.7638 37.3098 21.4957 37.1797C21.2275 37.0497 20.9927 36.8598 20.8095 36.6248C20.615 36.37 20.4808 36.0745 20.4167 35.7605C20.3527 35.4464 20.3605 35.122 20.4396 34.8114C21.0316 32.4341 22.4984 30.4626 24.6809 29.1105C26.618 27.9109 29.0838 27.25 31.6249 27.25C34.2159 27.25 36.6171 27.8828 38.5655 29.0816C40.7529 30.4267 42.2217 32.4095 42.8109 34.8156C42.8891 35.1264 42.896 35.4509 42.8313 35.7647C42.7665 36.0786 42.6317 36.3738 42.4369 36.6283C42.2538 36.8622 42.0196 37.0512 41.7522 37.1806C41.4848 37.31 41.1913 37.3765 40.8942 37.375ZM18.3359 25.2812C15.8616 25.2812 13.6861 22.9806 13.4843 20.1534C13.3845 18.7049 13.8359 17.3655 14.7499 16.3832C15.6541 15.4108 16.9296 14.875 18.3359 14.875C19.7421 14.875 21.0077 15.4136 21.9169 16.3916C22.838 17.3816 23.288 18.7183 23.1825 20.1548C22.9807 22.9813 20.8059 25.2812 18.3359 25.2812ZM22.9526 27.4926C21.7158 26.8879 20.1105 26.5855 18.3366 26.5855C16.2652 26.5855 14.2535 27.1255 12.6715 28.1057C10.8778 29.2188 9.67125 30.8395 9.18398 32.7962C9.11268 33.0777 9.10593 33.3716 9.16425 33.6561C9.22258 33.9405 9.34446 34.2081 9.52078 34.4387C9.68809 34.6535 9.90242 34.8271 10.1473 34.946C10.3922 35.065 10.6611 35.1262 10.9334 35.125H18.738C18.8698 35.125 18.9973 35.0787 19.0984 34.9943C19.1996 34.9099 19.2679 34.7927 19.2914 34.663C19.2991 34.6187 19.309 34.5745 19.3202 34.5309C19.9165 32.136 21.3136 30.1124 23.378 28.6373C23.4539 28.5825 23.515 28.5097 23.5556 28.4254C23.5963 28.3411 23.6153 28.248 23.6109 28.1545C23.6065 28.061 23.5789 27.9701 23.5305 27.89C23.482 27.8099 23.4144 27.7431 23.3337 27.6958C23.2233 27.6311 23.0967 27.5629 22.9526 27.4926Z" fill="#9145BF"/>
</svg>
