<svg width="20" height="21" viewBox="0 0 20 21" fill="none" xmlns="http://www.w3.org/2000/svg">
<path d="M12.5 1.90625C11.5301 1.90686 10.5744 2.13883 9.71209 2.58289C8.84983 3.02694 8.10593 3.67028 7.54215 4.45949C6.97838 5.24869 6.611 6.161 6.47051 7.12066C6.33002 8.08032 6.42048 9.05965 6.73438 9.97734L2.16875 14.5437C2.08082 14.6316 2.03136 14.7507 2.03125 14.875V18C2.03125 18.1243 2.08064 18.2435 2.16854 18.3315C2.25645 18.4194 2.37568 18.4688 2.5 18.4688H5.625C5.74932 18.4688 5.86855 18.4194 5.95646 18.3315C6.04436 18.2435 6.09375 18.1243 6.09375 18V16.5938H7.5C7.62432 16.5938 7.74355 16.5444 7.83146 16.4565C7.91936 16.3685 7.96875 16.2493 7.96875 16.125V14.7188H9.375C9.49928 14.7186 9.61843 14.6692 9.70625 14.5813L10.5227 13.7656C11.3597 14.052 12.249 14.1527 13.1288 14.0607C14.0087 13.9688 14.858 13.6863 15.6177 13.233C16.3774 12.7797 17.0293 12.1665 17.5281 11.4359C18.0268 10.7053 18.3606 9.87479 18.5061 9.00219C18.6516 8.12959 18.6053 7.23577 18.3706 6.38285C18.1358 5.52992 17.7181 4.73833 17.1466 4.06309C16.5751 3.38785 15.8634 2.84514 15.061 2.47268C14.2585 2.10022 13.3846 1.90693 12.5 1.90625ZM12.5 13.1562C11.8464 13.1574 11.1985 13.0336 10.5914 12.7914C10.5051 12.7538 10.4094 12.7431 10.3169 12.7606C10.2243 12.7782 10.1392 12.8232 10.0727 12.8898L9.18047 13.7812H7.5C7.37568 13.7812 7.25645 13.8306 7.16854 13.9185C7.08064 14.0065 7.03125 14.1257 7.03125 14.25V15.6562H5.625C5.50068 15.6562 5.38145 15.7056 5.29354 15.7935C5.20564 15.8815 5.15625 16.0007 5.15625 16.125V17.5312H2.96875V15.0695L7.61016 10.4273C7.67678 10.3608 7.7218 10.2757 7.73936 10.1831C7.75692 10.0906 7.7462 9.99494 7.70859 9.90859C7.30026 8.88379 7.23136 7.75505 7.51201 6.68819C7.79267 5.62133 8.40808 4.67261 9.26785 3.9814C10.1276 3.2902 11.1864 2.89295 12.2886 2.84803C13.3909 2.8031 14.4785 3.11287 15.3916 3.73182C16.3048 4.35076 16.9954 5.24626 17.3619 6.28674C17.7284 7.32722 17.7516 8.45783 17.428 9.51246C17.1045 10.5671 16.4512 11.4901 15.5642 12.146C14.6771 12.8019 13.6032 13.156 12.5 13.1562ZM14.8438 6.4375C14.8438 6.59202 14.7979 6.74306 14.7121 6.87154C14.6262 7.00002 14.5042 7.10015 14.3615 7.15928C14.2187 7.21841 14.0616 7.23388 13.9101 7.20374C13.7585 7.17359 13.6193 7.09919 13.5101 6.98993C13.4008 6.88067 13.3264 6.74146 13.2963 6.58991C13.2661 6.43837 13.2816 6.28128 13.3407 6.13853C13.3998 5.99577 13.5 5.87376 13.6285 5.78791C13.7569 5.70207 13.908 5.65625 14.0625 5.65625C14.2697 5.65625 14.4684 5.73856 14.6149 5.88507C14.7614 6.03159 14.8438 6.2303 14.8438 6.4375Z" fill="#555555"/>
</svg>
