<svg width="22" height="22" viewBox="0 0 22 22" fill="none" xmlns="http://www.w3.org/2000/svg">
<path d="M18.3332 11H9.62484M16.4998 13.75L19.2498 11L16.4998 8.25M11.9165 6.41666V5.5C11.9165 5.01377 11.7233 4.54745 11.3795 4.20363C11.0357 3.85982 10.5694 3.66666 10.0832 3.66666H5.49984C5.01361 3.66666 4.54729 3.85982 4.20347 4.20363C3.85966 4.54745 3.6665 5.01377 3.6665 5.5V16.5C3.6665 16.9862 3.85966 17.4525 4.20347 17.7964C4.54729 18.1402 5.01361 18.3333 5.49984 18.3333H10.0832C10.5694 18.3333 11.0357 18.1402 11.3795 17.7964C11.7233 17.4525 11.9165 16.9862 11.9165 16.5V15.5833" stroke="#FF5722" stroke-width="1.83333" stroke-linecap="round" stroke-linejoin="round"/>
</svg>
