<svg width="22" height="22" viewBox="0 0 22 22" fill="none" xmlns="http://www.w3.org/2000/svg">
<path d="M4.58333 20.1667C4.07917 20.1667 3.64742 19.987 3.28808 19.6277C2.92875 19.2683 2.74939 18.8369 2.75 18.3333V5.5C2.75 4.99583 2.92967 4.56408 3.289 4.20475C3.64833 3.84541 4.07978 3.66605 4.58333 3.66666H5.5V2.75C5.5 2.49028 5.588 2.27241 5.764 2.09641C5.94 1.92041 6.15756 1.83272 6.41667 1.83333C6.67639 1.83333 6.89425 1.92133 7.07025 2.09733C7.24625 2.27333 7.33395 2.49089 7.33334 2.75V3.66666H14.6667V2.75C14.6667 2.49028 14.7547 2.27241 14.9307 2.09641C15.1067 1.92041 15.3242 1.83272 15.5833 1.83333C15.8431 1.83333 16.0609 1.92133 16.2369 2.09733C16.4129 2.27333 16.5006 2.49089 16.5 2.75V3.66666H17.4167C17.9208 3.66666 18.3526 3.84633 18.7119 4.20566C19.0713 4.565 19.2506 4.99644 19.25 5.5V18.3333C19.25 18.8375 19.0703 19.2692 18.711 19.6286C18.3517 19.9879 17.9202 20.1673 17.4167 20.1667H4.58333ZM4.58333 18.3333H17.4167V9.16666H4.58333V18.3333ZM4.58333 7.33333H17.4167V5.5H4.58333V7.33333ZM7.33334 12.8333C7.07361 12.8333 6.85575 12.7453 6.67975 12.5693C6.50375 12.3933 6.41606 12.1758 6.41667 11.9167C6.41667 11.6569 6.50467 11.4391 6.68067 11.2631C6.85667 11.0871 7.07422 10.9994 7.33334 11H14.6667C14.9264 11 15.1443 11.088 15.3203 11.264C15.4963 11.44 15.5839 11.6576 15.5833 11.9167C15.5833 12.1764 15.4953 12.3942 15.3193 12.5702C15.1433 12.7462 14.9258 12.8339 14.6667 12.8333H7.33334ZM7.33334 16.5C7.07361 16.5 6.85575 16.412 6.67975 16.236C6.50375 16.06 6.41606 15.8424 6.41667 15.5833C6.41667 15.3236 6.50467 15.1057 6.68067 14.9297C6.85667 14.7537 7.07422 14.6661 7.33334 14.6667H11.9167C12.1764 14.6667 12.3943 14.7547 12.5703 14.9307C12.7463 15.1067 12.8339 15.3242 12.8333 15.5833C12.8333 15.8431 12.7453 16.0609 12.5693 16.2369C12.3933 16.4129 12.1758 16.5006 11.9167 16.5H7.33334Z" fill="#999999"/>
</svg>
