<svg width="20" height="21" viewBox="0 0 20 21" fill="none" xmlns="http://www.w3.org/2000/svg">
<g clip-path="url(#clip0_261_40)">
<path d="M11.4062 9.73828C11.9661 9.95312 12.4902 10.2298 12.9785 10.5684C13.4668 10.9069 13.916 11.3008 14.3262 11.75H12.4805C11.9401 11.3464 11.3542 11.0371 10.7227 10.8223C10.0911 10.6074 9.43359 10.5 8.75 10.5C8.17708 10.5 7.6237 10.5749 7.08984 10.7246C6.55599 10.8743 6.05794 11.0827 5.5957 11.3496C5.13346 11.6165 4.71354 11.9421 4.33594 12.3262C3.95833 12.7103 3.63281 13.1335 3.35938 13.5957C3.08594 14.0579 2.87435 14.556 2.72461 15.0898C2.57487 15.6237 2.5 16.1771 2.5 16.75H1.25C1.25 15.9688 1.36393 15.2168 1.5918 14.4941C1.81966 13.7715 2.14844 13.1042 2.57812 12.4922C3.00781 11.8802 3.51562 11.3366 4.10156 10.8613C4.6875 10.3861 5.35156 10.0117 6.09375 9.73828C5.35807 9.25651 4.78516 8.65104 4.375 7.92188C3.96484 7.19271 3.75651 6.38542 3.75 5.5C3.75 4.8099 3.88021 4.16211 4.14062 3.55664C4.40104 2.95117 4.75586 2.42057 5.20508 1.96484C5.6543 1.50911 6.1849 1.15104 6.79688 0.890625C7.40885 0.630208 8.0599 0.5 8.75 0.5C9.4401 0.5 10.0879 0.630208 10.6934 0.890625C11.2988 1.15104 11.8294 1.50586 12.2852 1.95508C12.7409 2.4043 13.099 2.9349 13.3594 3.54688C13.6198 4.15885 13.75 4.8099 13.75 5.5C13.75 5.92969 13.6979 6.34961 13.5938 6.75977C13.4896 7.16992 13.3333 7.55729 13.125 7.92188C12.9167 8.28646 12.6725 8.62175 12.3926 8.92773C12.1126 9.23372 11.7839 9.50391 11.4062 9.73828ZM5 5.5C5 6.02083 5.09766 6.50586 5.29297 6.95508C5.48828 7.4043 5.75521 7.80143 6.09375 8.14648C6.43229 8.49154 6.82943 8.76172 7.28516 8.95703C7.74089 9.15234 8.22917 9.25 8.75 9.25C9.26432 9.25 9.74935 9.15234 10.2051 8.95703C10.6608 8.76172 11.0579 8.49479 11.3965 8.15625C11.735 7.81771 12.0052 7.42057 12.207 6.96484C12.4089 6.50911 12.5065 6.02083 12.5 5.5C12.5 4.98568 12.4023 4.50065 12.207 4.04492C12.0117 3.58919 11.7448 3.19206 11.4062 2.85352C11.0677 2.51497 10.6673 2.24479 10.2051 2.04297C9.74284 1.84115 9.25781 1.74349 8.75 1.75C8.22917 1.75 7.74414 1.84766 7.29492 2.04297C6.8457 2.23828 6.44857 2.50521 6.10352 2.84375C5.75846 3.18229 5.48828 3.58268 5.29297 4.04492C5.09766 4.50716 5 4.99219 5 5.5ZM18.75 13V20.5H17.5V13H18.75ZM13.75 13H15V20.5H13.75V13Z" fill="#999999"/>
</g>
<defs>
<clipPath id="clip0_261_40">
<rect width="20" height="20" fill="white" transform="translate(0 0.5)"/>
</clipPath>
</defs>
</svg>
