<svg width="22" height="22" viewBox="0 0 22 22" fill="none" xmlns="http://www.w3.org/2000/svg">
<path d="M17.2732 7.21875C17.1473 8.96629 15.851 10.3125 14.4373 10.3125C13.0236 10.3125 11.7251 8.96672 11.6013 7.21875C11.4724 5.40074 12.7344 4.125 14.4373 4.125C16.1401 4.125 17.4021 5.43383 17.2732 7.21875Z" stroke="#999999" stroke-width="1.375" stroke-linecap="round" stroke-linejoin="round"/>
<path d="M14.4373 13.0625C11.6371 13.0625 8.9442 14.4534 8.2696 17.1621C8.18022 17.5205 8.40495 17.875 8.77319 17.875H20.1019C20.4701 17.875 20.6936 17.5205 20.6055 17.1621C19.9309 14.41 17.238 13.0625 14.4373 13.0625Z" stroke="#999999" stroke-width="1.375" stroke-miterlimit="10"/>
<path d="M8.59355 7.98961C8.493 9.38523 7.44542 10.4844 6.31621 10.4844C5.18699 10.4844 4.13769 9.38566 4.03886 7.98961C3.93617 6.5377 4.95582 5.5 6.31621 5.5C7.6766 5.5 8.69625 6.56434 8.59355 7.98961Z" stroke="#999999" stroke-width="1.375" stroke-linecap="round" stroke-linejoin="round"/>
<path d="M8.85149 13.1484C8.07591 12.7931 7.22169 12.6564 6.31634 12.6564C4.08196 12.6564 1.92923 13.7672 1.38997 15.9307C1.31907 16.2168 1.49868 16.5 1.79259 16.5H6.61712" stroke="#999999" stroke-width="1.375" stroke-miterlimit="10" stroke-linecap="round"/>
</svg>
