<svg width="46" height="46" viewBox="0 0 46 46" fill="none" xmlns="http://www.w3.org/2000/svg">
<rect width="46" height="46" rx="8.84615" fill="#CCE3F0"/>
<path d="M19 27V34.856C13.938 34.098 11 30.504 11 27V26C11 25.2044 11.3161 24.4413 11.8787 23.8787C12.4413 23.3161 13.2044 23 14 23H20.528C19.5422 24.0989 18.998 25.5237 19 27ZM21 10C22.4587 10 23.8576 10.5795 24.8891 11.6109C25.9205 12.6424 26.5 14.0413 26.5 15.5C26.5 16.9587 25.9205 18.3576 24.8891 19.3891C23.8576 20.4205 22.4587 21 21 21C19.5413 21 18.1424 20.4205 17.1109 19.3891C16.0795 18.3576 15.5 16.9587 15.5 15.5C15.5 14.0413 16.0795 12.6424 17.1109 11.6109C18.1424 10.5795 19.5413 10 21 10ZM25 23C23.9391 23 22.9217 23.4214 22.1716 24.1716C21.4214 24.9217 21 25.9391 21 27V35C21 36.0609 21.4214 37.0783 22.1716 37.8284C22.9217 38.5786 23.9391 39 25 39H35C36.0609 39 37.0783 38.5786 37.8284 37.8284C38.5786 37.0783 39 36.0609 39 35V27C39 25.9391 38.5786 24.9217 37.8284 24.1716C37.0783 23.4214 36.0609 23 35 23H25ZM26 33H34C34.2652 33 34.5196 33.1054 34.7071 33.2929C34.8946 33.4804 35 33.7348 35 34C35 34.2652 34.8946 34.5196 34.7071 34.7071C34.5196 34.8946 34.2652 35 34 35H26C25.7348 35 25.4804 34.8946 25.2929 34.7071C25.1054 34.5196 25 34.2652 25 34C25 33.7348 25.1054 33.4804 25.2929 33.2929C25.4804 33.1054 25.7348 33 26 33ZM25 28C25 27.7348 25.1054 27.4804 25.2929 27.2929C25.4804 27.1054 25.7348 27 26 27H34C34.2652 27 34.5196 27.1054 34.7071 27.2929C34.8946 27.4804 35 27.7348 35 28C35 28.2652 34.8946 28.5196 34.7071 28.7071C34.5196 28.8946 34.2652 29 34 29H26C25.7348 29 25.4804 28.8946 25.2929 28.7071C25.1054 28.5196 25 28.2652 25 28Z" fill="#005F97"/>
</svg>
