<svg width="23" height="22" viewBox="0 0 23 22" fill="none" xmlns="http://www.w3.org/2000/svg">
<g id="radix-icons:dashboard">
<path id="Vector" fill-rule="evenodd" clip-rule="evenodd" d="M4.6068 1.46667H4.53346C4.1976 1.46667 3.90866 1.46667 3.65346 1.52681C3.2584 1.62121 2.89718 1.82314 2.60983 2.11023C2.32248 2.39732 2.12022 2.75836 2.02546 3.15334C1.9668 3.40854 1.9668 3.69601 1.9668 4.03334V7.70001C1.9668 8.03587 1.9668 8.32481 2.02693 8.58001C2.12133 8.97508 2.32326 9.33629 2.61035 9.62364C2.89744 9.91099 3.25848 10.1133 3.65346 10.208C3.90866 10.2667 4.19613 10.2667 4.53346 10.2667H8.20013C8.536 10.2667 8.82493 10.2667 9.08013 10.2065C9.4752 10.1121 9.83642 9.91021 10.1238 9.62312C10.4111 9.33603 10.6134 8.97499 10.7081 8.58001C10.7668 8.32481 10.7668 8.03734 10.7668 7.70001V4.03334C10.7668 3.69747 10.7668 3.40854 10.7067 3.15334C10.6123 2.75827 10.4103 2.39705 10.1232 2.10971C9.83615 1.82236 9.47511 1.6201 9.08013 1.52534C8.82493 1.46667 8.53746 1.46667 8.20013 1.46667H4.6068ZM3.9952 2.95387C4.05826 2.93921 4.15653 2.93334 4.6068 2.93334H8.1268C8.57853 2.93334 8.67533 2.93774 8.7384 2.95387C8.87015 2.98538 8.9906 3.05277 9.08638 3.14855C9.18217 3.24434 9.24956 3.36479 9.28106 3.49654C9.29573 3.55814 9.30013 3.65494 9.30013 4.10667V7.62667C9.30013 8.07841 9.29573 8.17521 9.2796 8.23828C9.24809 8.37003 9.18071 8.49047 9.08492 8.58626C8.98913 8.68205 8.86868 8.74944 8.73693 8.78094C8.6768 8.79414 8.58 8.80001 8.1268 8.80001H4.6068C4.15506 8.80001 4.05826 8.79561 3.9952 8.77948C3.86345 8.74797 3.743 8.68058 3.64721 8.5848C3.55142 8.48901 3.48404 8.36856 3.45253 8.23681C3.43933 8.17668 3.43346 8.07987 3.43346 7.62667V4.10667C3.43346 3.65494 3.43786 3.55814 3.454 3.49507C3.4855 3.36332 3.55289 3.24288 3.64868 3.14709C3.74446 3.0513 3.86491 2.98391 3.99666 2.95241L3.9952 2.95387ZM14.8735 1.46667H14.8001C14.4643 1.46667 14.1753 1.46667 13.9201 1.52681C13.5251 1.62121 13.1638 1.82314 12.8765 2.11023C12.5891 2.39732 12.3869 2.75836 12.2921 3.15334C12.2335 3.40854 12.2335 3.69601 12.2335 4.03334V7.70001C12.2335 8.03587 12.2335 8.32481 12.2936 8.58001C12.388 8.97508 12.5899 9.33629 12.877 9.62364C13.1641 9.91099 13.5251 10.1133 13.9201 10.208C14.1753 10.2667 14.4628 10.2667 14.8001 10.2667H18.4668C18.8027 10.2667 19.0916 10.2667 19.3468 10.2065C19.7419 10.1121 20.1031 9.91021 20.3904 9.62312C20.6778 9.33603 20.88 8.97499 20.9748 8.58001C21.0335 8.32481 21.0335 8.03734 21.0335 7.70001V4.03334C21.0335 3.69747 21.0335 3.40854 20.9733 3.15334C20.8789 2.75827 20.677 2.39705 20.3899 2.10971C20.1028 1.82236 19.7418 1.6201 19.3468 1.52534C19.0916 1.46667 18.8041 1.46667 18.4668 1.46667H14.8735ZM14.2619 2.95387C14.3249 2.93921 14.4232 2.93334 14.8735 2.93334H18.3935C18.8452 2.93334 18.942 2.93774 19.0051 2.95387C19.1368 2.98538 19.2573 3.05277 19.3531 3.14855C19.4488 3.24434 19.5162 3.36479 19.5477 3.49654C19.5624 3.55814 19.5668 3.65494 19.5668 4.10667V7.62667C19.5668 8.07841 19.5609 8.17521 19.5463 8.23828C19.5148 8.37003 19.4474 8.49047 19.3516 8.58626C19.2558 8.68205 19.1353 8.74944 19.0036 8.78094C18.942 8.79561 18.8452 8.80001 18.3935 8.80001H14.8735C14.4217 8.80001 14.3249 8.79561 14.2619 8.77948C14.1301 8.74797 14.0097 8.68058 13.9139 8.5848C13.8181 8.48901 13.7507 8.36856 13.7192 8.23681C13.706 8.17668 13.7001 8.07987 13.7001 7.62667V4.10667C13.7001 3.65494 13.7045 3.55814 13.7207 3.49507C13.7522 3.36332 13.8196 3.24288 13.9153 3.14709C14.0111 3.0513 14.1316 2.98391 14.2633 2.95241L14.2619 2.95387ZM4.53346 11.7333H8.20013C8.536 11.7333 8.82493 11.7333 9.08013 11.7935C9.4752 11.8879 9.83642 12.0898 10.1238 12.3769C10.4111 12.664 10.6134 13.025 10.7081 13.42C10.7668 13.6752 10.7668 13.9627 10.7668 14.3V17.9667C10.7668 18.3025 10.7668 18.5915 10.7067 18.8467C10.6123 19.2417 10.4103 19.603 10.1232 19.8903C9.83615 20.1777 9.47511 20.3799 9.08013 20.4747C8.82493 20.5333 8.53746 20.5333 8.20013 20.5333H4.53346C4.1976 20.5333 3.90866 20.5333 3.65346 20.4732C3.2584 20.3788 2.89718 20.1769 2.60983 19.8898C2.32248 19.6027 2.12022 19.2417 2.02546 18.8467C1.9668 18.5915 1.9668 18.304 1.9668 17.9667V14.3C1.9668 13.9641 1.9668 13.6752 2.02693 13.42C2.12133 13.0249 2.32326 12.6637 2.61035 12.3764C2.89744 12.089 3.25848 11.8868 3.65346 11.792C3.90866 11.7333 4.19613 11.7333 4.53346 11.7333ZM4.6068 13.2C4.15506 13.2 4.05826 13.2044 3.9952 13.2205C3.86345 13.252 3.743 13.3194 3.64721 13.4152C3.55142 13.511 3.48404 13.6315 3.45253 13.7632C3.43933 13.8233 3.43346 13.9201 3.43346 14.3733V17.8933C3.43346 18.3451 3.43786 18.4419 3.454 18.5049C3.4855 18.6367 3.55289 18.7571 3.64868 18.8529C3.74446 18.9487 3.86491 19.0161 3.99666 19.0476C4.05826 19.0623 4.15506 19.0667 4.6068 19.0667H8.1268C8.57853 19.0667 8.67533 19.0608 8.7384 19.0461C8.87015 19.0146 8.9906 18.9473 9.08638 18.8515C9.18217 18.7557 9.24956 18.6352 9.28106 18.5035C9.29573 18.4419 9.30013 18.3451 9.30013 17.8933V14.3733C9.30013 13.9216 9.29573 13.8248 9.2796 13.7617C9.24809 13.63 9.18071 13.5095 9.08492 13.4138C8.98913 13.318 8.86868 13.2506 8.73693 13.2191C8.6768 13.2059 8.58 13.2 8.1268 13.2H4.6068ZM14.8735 11.7333H14.8001C14.4643 11.7333 14.1753 11.7333 13.9201 11.7935C13.5251 11.8879 13.1638 12.0898 12.8765 12.3769C12.5891 12.664 12.3869 13.025 12.2921 13.42C12.2335 13.6752 12.2335 13.9627 12.2335 14.3V17.9667C12.2335 18.3025 12.2335 18.5915 12.2936 18.8467C12.388 19.2417 12.5899 19.603 12.877 19.8903C13.1641 20.1777 13.5251 20.3799 13.9201 20.4747C14.1753 20.5348 14.4643 20.5348 14.8001 20.5348H18.4668C18.8027 20.5348 19.0916 20.5348 19.3468 20.4747C19.7416 20.38 20.1025 20.178 20.3896 19.8909C20.6767 19.6038 20.8787 19.2429 20.9733 18.8481C21.0335 18.5929 21.0335 18.304 21.0335 17.9681V14.3C21.0335 13.9641 21.0335 13.6752 20.9733 13.42C20.8789 13.0249 20.677 12.6637 20.3899 12.3764C20.1028 12.089 19.7418 11.8868 19.3468 11.792C19.0916 11.7333 18.8041 11.7333 18.4668 11.7333H14.8735ZM14.2619 13.2205C14.3249 13.2059 14.4232 13.2 14.8735 13.2H18.3935C18.8452 13.2 18.942 13.2044 19.0051 13.2205C19.1368 13.252 19.2573 13.3194 19.3531 13.4152C19.4488 13.511 19.5162 13.6315 19.5477 13.7632C19.5624 13.8248 19.5668 13.9216 19.5668 14.3733V17.8933C19.5668 18.3451 19.5609 18.4419 19.5463 18.5049C19.5148 18.6367 19.4474 18.7571 19.3516 18.8529C19.2558 18.9487 19.1353 19.0161 19.0036 19.0476C18.942 19.0623 18.8452 19.0667 18.3935 19.0667H14.8735C14.4217 19.0667 14.3249 19.0608 14.2619 19.0461C14.1301 19.0146 14.0097 18.9473 13.9139 18.8515C13.8181 18.7557 13.7507 18.6352 13.7192 18.5035C13.706 18.4433 13.7001 18.3465 13.7001 17.8933V14.3733C13.7001 13.9216 13.7045 13.8248 13.7207 13.7617C13.7522 13.63 13.8196 13.5095 13.9153 13.4138C14.0111 13.318 14.1316 13.2506 14.2633 13.2191L14.2619 13.2205Z" fill="#999999"/>
</g>
</svg>
